<?xml version="1.0" standalone="no"?>
<!DOCTYPE svg PUBLIC "-//W3C//DTD SVG 20010904//EN"
 "http://www.w3.org/TR/2001/REC-SVG-20010904/DTD/svg10.dtd">
<svg version="1.0" xmlns="http://www.w3.org/2000/svg"
 width="934.000000pt" height="725.000000pt" viewBox="0 0 934.000000 725.000000"
 preserveAspectRatio="xMidYMid meet">

<g transform="translate(0.000000,725.000000) scale(0.100000,-0.100000)"
fill="#000000" stroke="none">
<path d="M0 3625 l0 -3625 4670 0 4670 0 0 3625 0 3625 -4670 0 -4670 0 0
-3625z m3997 1474 c126 -63 132 -276 10 -373 -33 -27 -48 -31 -112 -34 l-74
-4 -3 -132 -3 -131 -55 0 -55 0 -3 340 c-1 187 0 346 3 353 3 9 33 12 124 9
101 -4 127 -8 168 -28z m383 -265 l0 -284 105 0 106 0 -3 -62 -3 -63 -145 -2
c-80 -2 -153 0 -162 3 -17 5 -18 30 -18 349 l0 344 43 3 c84 6 77 30 77 -288z
m493 287 c4 -1 7 -62 7 -136 l0 -135 75 0 75 0 0 134 c0 74 4 137 9 140 4 3
31 3 60 -1 l51 -6 -2 -346 -3 -346 -55 0 -55 0 -3 148 c-2 107 -6 147 -15 148
-6 1 -30 3 -52 5 -86 9 -84 13 -87 -154 l-3 -147 -57 -3 -58 -3 0 350 c0 270
3 350 13 354 10 4 51 3 100 -2z m-3533 -56 c-7 -8 -17 -15 -22 -15 -6 0 -5 7
2 15 7 8 17 15 22 15 6 0 5 -7 -2 -15z m-80 -74 c-8 -16 -4 -24 29 -50 21 -17
44 -31 51 -31 7 0 10 -7 6 -15 -3 -8 -2 -14 2 -13 4 1 18 -2 31 -6 18 -6 21
-10 10 -17 -11 -7 -10 -9 5 -9 27 0 86 -39 86 -57 0 -8 -34 -52 -76 -96 -141
-152 -215 -292 -254 -482 -67 -328 46 -718 284 -973 175 -188 373 -301 625
-358 107 -24 129 -26 281 -21 100 3 194 12 240 22 265 59 490 174 682 346 38
33 68 58 68 54 0 -20 -127 -182 -194 -247 -383 -374 -940 -493 -1429 -307
-120 46 -188 81 -294 154 -352 241 -567 625 -590 1049 -15 290 63 586 215 816
78 119 266 322 222 241z m867 -197 c-3 -3 -12 -4 -19 -1 -8 3 -5 6 6 6 11 1
17 -2 13 -5z m-333 -59 c-10 -8 -23 -15 -27 -15 -21 0 -67 -43 -67 -61 0 -11
-7 -19 -17 -20 -15 0 -15 -2 2 -9 11 -4 24 -4 29 0 11 11 88 -39 80 -51 -3 -5
-2 -9 3 -8 13 3 47 -14 61 -30 11 -13 12 -13 6 -1 -4 8 8 2 27 -15 l36 -30
-36 -30 c-78 -65 -126 -123 -160 -195 -31 -64 -36 -86 -39 -166 -3 -66 0 -107
13 -150 43 -150 147 -276 277 -338 104 -48 163 -60 280 -53 162 9 296 71 415
194 59 60 129 177 146 243 3 13 9 21 13 17 3 -3 3 -14 -1 -24 -12 -28 -17 -45
-22 -85 -4 -33 -2 -39 18 -47 13 -5 51 -30 84 -56 33 -26 70 -51 83 -56 14 -5
22 -16 20 -26 -2 -10 2 -18 7 -19 33 -3 65 -18 65 -30 0 -8 7 -14 15 -14 20 0
50 -17 102 -58 40 -31 41 -34 31 -65 -27 -77 -190 -248 -312 -328 -207 -135
-464 -198 -724 -177 -198 16 -403 102 -549 231 -135 119 -209 221 -275 377
-60 142 -72 206 -72 375 0 137 2 157 28 235 69 210 198 365 381 458 83 42 113
53 79 27z m366 -392 c16 -9 34 -27 41 -40 11 -20 42 -36 73 -38 5 0 10 -9 12
-19 1 -10 6 -22 11 -25 4 -3 13 -21 20 -39 10 -29 8 -38 -16 -85 -23 -44 -33
-54 -70 -66 -61 -19 -101 -6 -124 42 -22 44 -30 46 -45 12 -17 -38 -15 -70 9
-116 16 -32 32 -46 75 -65 57 -25 102 -30 132 -15 9 5 31 15 48 21 41 15 132
103 140 135 3 14 10 25 15 25 5 0 9 11 9 24 0 14 5 28 10 31 6 4 10 -10 10
-34 0 -37 2 -41 25 -41 14 0 25 -4 25 -10 0 -5 10 -12 23 -15 35 -9 33 -52 -4
-108 -106 -160 -348 -231 -514 -152 -111 53 -205 194 -205 310 0 113 79 231
172 256 24 6 52 15 63 19 29 12 34 12 65 -7z m337 -115 c-3 -8 -6 -5 -6 6 -1
11 2 17 5 13 3 -3 4 -12 1 -19z m2370 -79 c72 -27 132 -119 133 -201 l0 -48
-65 0 -65 0 0 43 c0 53 -33 90 -80 90 -65 0 -79 -45 -80 -258 0 -201 14 -244
81 -245 44 0 72 31 78 86 l6 49 60 0 60 0 3 -40 c5 -57 -14 -110 -54 -155 -98
-108 -266 -85 -334 46 -24 47 -25 54 -25 259 0 179 3 217 18 257 19 49 61 92
112 114 37 16 114 18 152 3z m1502 -12 c24 -12 57 -42 75 -65 l31 -44 3 -221
c2 -122 0 -237 -3 -255 -3 -18 -23 -52 -43 -74 -67 -74 -156 -96 -237 -59 -43
19 -100 78 -116 118 -5 13 -9 124 -9 245 0 203 2 225 21 264 20 42 67 86 111
104 44 17 122 11 167 -13z m884 10 c45 -19 104 -88 117 -138 7 -26 10 -118 8
-253 l-3 -213 -28 -41 c-15 -23 -46 -54 -69 -69 -35 -24 -52 -28 -107 -28 -56
1 -73 5 -109 30 -24 15 -55 49 -70 74 -26 45 -27 51 -30 238 -4 223 4 282 50
337 56 68 162 96 241 63z m485 -2 c74 -31 120 -99 129 -191 l6 -54 -67 0 c-64
0 -66 1 -66 25 0 43 -27 94 -56 105 -34 13 -58 5 -84 -27 -19 -24 -20 -40 -20
-225 0 -198 0 -199 25 -223 25 -26 63 -32 95 -15 20 10 40 59 40 96 0 21 -5
24 -40 24 l-40 0 0 65 0 66 103 -3 102 -3 0 -115 c0 -108 -2 -118 -28 -163
-75 -127 -238 -143 -336 -32 -16 19 -35 51 -40 72 -14 50 -14 417 0 468 13 46
93 131 131 138 51 10 111 6 146 -8z m-4881 -42 c-3 -10 -5 -2 -5 17 0 19 2 27
5 18 2 -10 2 -26 0 -35z m1251 -15 l-3 -63 -67 -3 -68 -3 0 -304 0 -305 -65 0
-65 0 0 305 0 305 -70 0 -70 0 0 65 0 65 205 0 206 0 -3 -62z m412 2 l0 -59
-112 -3 -113 -3 0 -80 0 -80 113 -3 112 -3 0 -59 0 -60 -109 0 c-126 0 -121 4
-121 -100 0 -104 -5 -100 121 -100 l109 0 0 -65 0 -65 -175 0 -175 0 0 370 0
370 175 0 175 0 0 -60z m690 -90 l0 -151 78 3 77 3 3 148 3 147 58 0 c42 0 60
-4 64 -14 3 -8 5 -173 4 -368 l-2 -353 -62 -3 -63 -3 0 156 0 155 -80 0 -79 0
-3 -152 -3 -153 -62 -3 -63 -3 0 371 0 370 65 0 65 0 0 -150z m512 75 c17 -38
41 -97 54 -130 14 -33 40 -91 59 -130 l35 -70 -3 200 -2 200 57 3 57 3 3 -358
c2 -197 1 -364 -1 -371 -2 -9 -18 -12 -49 -10 l-45 3 -89 185 c-48 102 -88
181 -89 175 0 -5 0 -90 1 -188 l1 -178 -63 3 -63 3 -3 355 c-1 195 0 361 3
368 3 9 21 12 56 10 l52 -3 29 -70z m973 -230 l0 -300 113 -3 112 -3 0 -64 0
-65 -175 0 -175 0 0 370 0 371 63 -3 62 -3 0 -300z m1344 175 c19 -69 36 -127
38 -130 8 -9 20 23 53 140 l35 120 62 0 c35 0 63 -2 63 -3 0 -2 -30 -89 -67
-193 l-67 -189 -5 -170 -6 -170 -62 -3 -63 -3 0 150 0 150 -70 210 c-38 115
-70 212 -70 216 0 3 28 5 62 3 l62 -3 35 -125z m-5189 24 c0 -8 -5 -12 -10 -9
-6 4 -8 11 -5 16 9 14 15 11 15 -7z"/>
<path d="M3828 5004 c-5 -4 -8 -49 -8 -101 l0 -93 50 0 c41 0 56 5 75 25 34
33 37 116 6 148 -18 18 -111 35 -123 21z"/>
<path d="M6245 4028 c-43 -23 -45 -33 -45 -245 0 -203 0 -204 25 -228 31 -32
66 -32 102 -1 l28 24 0 195 c0 209 -5 235 -52 256 -29 13 -33 13 -58 -1z"/>
<path d="M7140 4027 c-44 -22 -50 -49 -50 -245 0 -185 4 -213 39 -239 26 -20
70 -15 96 12 25 24 25 25 25 225 l0 202 -29 29 c-33 32 -44 35 -81 16z"/>
</g>
</svg>
